<svg width="435" height="435" viewBox="0 0 435 435" fill="none" xmlns="http://www.w3.org/2000/svg">
<g clip-path="url(#clip0_1_19)">
<path d="M403.5 379.238C403.5 401.46 335.335 419.475 251.25 419.475C167.165 419.475 99 401.46 99 379.238C99 357.015 167.165 339 251.25 339C335.335 339 403.5 357.015 403.5 379.238Z" fill="#BFBFBF"/>
<path d="M260.315 189.902C259.325 188.834 258.357 187.766 257.361 186.7C255.932 189.436 252.298 190.298 249.335 190.208C247.159 189.999 245.003 189.62 242.886 189.073C240.675 188.435 238.308 188.604 236.209 189.549C234.358 190.617 233.236 192.74 230.793 192.377C228.91 192.105 227.603 190.435 225.776 190.095C223.868 189.732 222.709 191.968 221.711 193.206C220.712 194.515 219.299 195.447 217.702 195.85C214.455 196.623 211.027 195.442 207.915 194.602C205.144 193.852 201.607 192.751 198.921 194.319C198.183 194.831 197.512 195.433 196.924 196.111C196.091 196.971 194.952 197.465 193.755 197.486C192.529 197.418 191.313 197.232 190.123 196.929C188.974 196.732 187.808 196.659 186.643 196.712C181.964 197.248 177.36 198.306 172.917 199.868C170.683 200.506 168.389 200.909 166.072 201.07C163.669 201.131 161.274 200.786 158.986 200.05C157.588 199.628 156.11 199.542 154.673 199.8C153.207 200.061 151.754 200.39 150.299 200.696C147.428 201.288 144.555 201.888 141.684 202.48C140.274 202.776 138.856 203.061 137.449 203.35C136.381 203.567 135.926 201.93 136.994 201.714C142.682 200.533 148.37 199.25 154.081 198.195C155.43 197.907 156.822 197.88 158.181 198.115C159.462 198.365 160.7 198.854 161.983 199.115C164.229 199.524 166.533 199.509 168.773 199.069C173.36 198.273 177.708 196.481 182.274 195.572C184.525 195.068 186.84 194.907 189.14 195.096C190.334 195.22 191.491 195.531 192.672 195.709C193.241 195.844 193.835 195.827 194.396 195.659C194.956 195.492 195.462 195.179 195.863 194.754C196.937 193.462 198.378 192.528 199.995 192.075C201.564 191.769 203.178 191.78 204.741 192.109C208.004 192.666 211.112 194.017 214.403 194.324C215.825 194.538 217.28 194.325 218.581 193.71C220.171 192.84 220.973 191.168 222.18 189.895C222.786 189.184 223.61 188.693 224.523 188.496C225.436 188.3 226.388 188.409 227.233 188.808C228.675 189.443 230.48 191.316 232.172 190.548C233.059 189.981 233.881 189.319 234.624 188.573C235.504 187.905 236.525 187.446 237.61 187.233C239.898 186.911 242.228 187.059 244.457 187.668C246.424 188.214 248.455 188.493 250.497 188.497C252.187 188.501 253.826 187.924 255.14 186.861C255.7 186.323 256.08 185.625 256.228 184.862C256.269 184.72 256.347 184.592 256.453 184.488C256.559 184.385 256.689 184.311 256.832 184.274C256.975 184.236 257.125 184.236 257.268 184.274C257.411 184.311 257.542 184.385 257.648 184.488C258.942 185.895 260.236 187.292 261.531 188.701C262.268 189.495 261.065 190.698 260.328 189.893M209.37 218.309C208.822 219.071 208.131 219.719 207.336 220.217C206.453 220.648 205.457 220.795 204.487 220.637C202.488 220.374 200.446 219.216 198.412 219.841C197.412 220.224 196.466 220.736 195.598 221.363C194.66 221.988 193.64 222.478 192.566 222.818C190.026 223.38 187.434 223.666 184.834 223.671C179.418 224.045 174.002 224.441 168.575 224.793C165.885 224.963 163.181 225.111 160.491 225.089C158.061 225.065 155.643 224.917 153.224 224.793C148.451 224.296 143.629 224.59 138.952 225.663C137.817 225.988 136.712 226.41 135.65 226.925C134.674 227.401 133.81 225.937 134.798 225.459C143.574 221.167 153.666 223.584 163.012 223.358C168.382 223.223 173.741 222.733 179.089 222.359C181.756 222.177 184.425 221.983 187.082 221.803C189.536 221.861 191.966 221.323 194.166 220.237C195.798 218.911 197.793 218.111 199.889 217.944C200.934 218.033 201.967 218.239 202.967 218.557C203.889 218.892 204.873 219.024 205.851 218.942C206.734 218.677 207.492 218.101 207.984 217.32C208.516 216.592 209.223 216.01 210.04 215.628C211.72 215.239 213.483 215.465 215.012 216.263C215.689 216.56 216.435 216.67 217.169 216.58C218.065 216.376 218.509 215.423 219.02 214.74C219.54 214.064 220.244 213.552 221.048 213.266C221.851 212.98 222.721 212.932 223.551 213.129C225.067 213.597 226.641 213.849 228.227 213.879C230.113 213.616 230.454 211.323 231.724 210.223C232.491 209.699 233.386 209.396 234.313 209.346C235.24 209.295 236.163 209.5 236.981 209.938C237.884 210.329 238.841 210.578 239.82 210.675C240.822 210.625 241.795 210.322 242.647 209.792C243.576 209.259 244.59 208.891 245.644 208.705C246.809 208.611 247.981 208.759 249.085 209.14C249.922 209.573 250.842 209.825 251.783 209.877C252.725 209.93 253.666 209.782 254.547 209.444C254.85 209.306 255.101 209.076 255.266 208.787C255.431 208.497 255.5 208.164 255.464 207.832C255.408 207.232 256.045 206.936 256.552 207.017C257.553 207.182 258.51 207.549 259.363 208.098C260.217 208.646 260.949 209.363 261.515 210.205C262.14 211.104 260.663 211.945 260.049 211.058C259.326 210.022 258.274 209.261 257.063 208.9C256.841 209.501 256.479 210.039 256.008 210.471C255.536 210.904 254.968 211.217 254.351 211.386C252.302 211.785 250.18 211.539 248.276 210.684C247.187 210.308 246.006 210.287 244.905 210.625C243.904 210.98 242.997 211.569 242.008 211.954C240.061 212.525 237.97 212.343 236.15 211.445C235.337 211.062 234.425 210.942 233.54 211.104C232.644 211.399 232.214 212.283 231.77 213.033C231.387 213.827 230.78 214.492 230.023 214.946C229.267 215.4 228.395 215.624 227.514 215.589C225.843 215.51 224.266 214.782 222.596 214.719C222.233 214.682 221.867 214.729 221.525 214.854C221.183 214.98 220.874 215.182 220.621 215.445C220.074 216.256 219.442 217.006 218.735 217.683C217.986 218.074 217.152 218.275 216.307 218.269C215.462 218.263 214.631 218.05 213.887 217.648C213.1 217.303 212.259 217.099 211.401 217.046C210.992 217.094 210.599 217.232 210.248 217.448C209.897 217.663 209.597 217.953 209.37 218.296M198.036 249.292C197.752 249.795 197.357 250.225 196.88 250.55C196.403 250.875 195.858 251.085 195.287 251.165C194.33 251.142 193.409 250.794 192.677 250.178C191.846 249.484 190.97 248.847 190.054 248.272C189.563 248.041 189.029 247.916 188.487 247.906C187.945 247.896 187.407 248.001 186.908 248.214C184.793 249.32 182.591 250.251 180.323 250.995C178.121 251.383 175.838 251.008 173.658 251.496C172.661 251.67 171.77 252.223 171.172 253.04C170.492 254.003 169.889 255.015 168.63 255.215C166.187 255.624 164.715 252.864 162.488 252.479C160.893 252.363 159.291 252.505 157.742 252.898L152.62 253.716L141.962 255.419C140.894 255.591 140.429 253.953 141.508 253.786C144.698 253.275 147.876 252.772 151.078 252.263C154.166 251.774 157.265 251.161 160.376 250.81C161.693 250.602 163.043 250.767 164.271 251.287C165.359 251.809 166.213 252.67 167.257 253.244C167.441 253.374 167.651 253.465 167.872 253.51C168.092 253.555 168.32 253.553 168.541 253.505C169.073 253.314 169.369 252.701 169.663 252.268C170.275 251.33 171.159 250.601 172.197 250.18C174.326 249.608 176.533 249.374 178.735 249.486C179.913 249.413 181.067 249.125 182.141 248.635C183.265 248.113 184.344 247.476 185.48 246.978C186.542 246.444 187.721 246.183 188.909 246.217C190.016 246.339 191.063 246.776 191.928 247.476C192.712 248.181 193.573 248.795 194.495 249.305C195.665 249.806 196.254 248.816 196.887 247.987C198.443 246.064 200.656 244.785 203.099 244.398C205.541 244.01 208.041 244.541 210.116 245.888C211.012 246.5 210.161 247.976 209.263 247.352C207.498 246.189 205.357 245.74 203.273 246.099C201.19 246.457 199.321 247.595 198.047 249.281M157.766 277.904C156.711 277.406 155.678 276.519 154.462 276.974C153.848 277.248 153.249 277.555 152.667 277.891C152.018 278.212 151.352 278.497 150.671 278.744C147.977 279.702 145.097 280.024 142.258 279.686C141.19 279.562 141.17 277.859 142.258 277.983C144.698 278.284 147.175 278.062 149.522 277.33C150.684 276.951 151.805 276.46 152.872 275.864C153.807 275.263 154.936 275.039 156.03 275.24C156.985 275.594 157.911 276.023 158.799 276.523C159.905 276.818 161.079 276.714 162.116 276.228C164.318 275.695 166.636 275.915 168.699 276.852C169.748 277.28 170.843 277.585 171.962 277.761C173.011 277.857 174.068 277.708 175.05 277.326C177.038 276.602 178.763 275.318 180.705 274.488C182.902 273.715 185.226 273.372 187.552 273.478C188.75 273.502 189.941 273.28 191.05 272.826C191.98 272.322 192.861 271.733 193.681 271.066C194.592 270.345 195.664 269.855 196.805 269.637C198.216 269.523 199.634 269.753 200.937 270.307C202.03 270.787 203.205 271.048 204.398 271.077C204.842 271.108 205.287 271.016 205.682 270.81C206.077 270.603 206.407 270.292 206.636 269.909C207.045 268.909 208.691 269.352 208.269 270.364C207.862 271.209 207.192 271.901 206.359 272.334C205.526 272.768 204.576 272.92 203.649 272.769C201.298 272.589 198.971 270.738 196.587 271.408C195.581 271.783 194.65 272.337 193.84 273.043C192.961 273.744 191.976 274.299 190.921 274.688C188.529 275.484 185.971 274.949 183.526 275.371C181.398 275.949 179.371 276.853 177.519 278.05C175.608 279.192 173.367 279.652 171.161 279.355C168.891 278.968 166.811 277.615 164.462 277.55C163.264 277.676 162.084 277.935 160.943 278.322C159.866 278.538 158.748 278.391 157.763 277.902" fill="black"/>
<path d="M98.9778 42.165L102.675 41.2471C111.625 39.6798 120.653 38.5994 129.719 38.0107C135.874 37.4539 142.033 36.9392 148.194 36.4665C147.976 30.971 147.764 25.4719 147.556 19.9691C147.535 19.2644 147.5 18.5728 147.476 17.8681L147.306 13.4289C147.311 13.2045 147.403 12.9908 147.562 12.8323C147.721 12.6739 147.934 12.5829 148.159 12.5785C151.439 12.2609 154.721 11.9542 157.992 11.6367C163.212 11.1364 168.432 10.6405 173.652 10.149C174.537 10.0685 175.436 9.97717 176.321 9.89887C176.235 8.68054 176.258 7.45705 176.388 6.2427C176.504 3.47131 177.594 0.829671 179.466 -1.21755C182.248 -3.86235 186.38 -3.5448 189.786 -2.47688C192.342 -1.73133 194.631 -0.270377 196.383 1.7336C198.135 3.73759 199.278 6.20098 199.676 8.83312L209.998 8.26545C215.878 7.93775 221.759 7.60497 227.642 7.26712C229.004 7.18737 230.366 7.11125 231.729 7.03875C231.879 7.02385 232.03 7.05659 232.16 7.13234C232.291 7.20808 232.394 7.32297 232.455 7.4607C232.539 7.59027 232.583 7.74149 232.581 7.8957V30.8854C241.716 30.3518 250.845 29.8219 259.967 29.2955C264.191 29.0563 268.418 28.8257 272.649 28.6039C274.589 28.5016 276.623 28.2167 278.563 28.2841C278.654 28.2841 278.735 28.2733 278.824 28.2733C278.997 28.2812 279.164 28.3398 279.304 28.4418C279.444 28.5438 279.551 28.6846 279.611 28.8469C279.672 29.0091 279.683 29.1856 279.644 29.3543C279.605 29.523 279.517 29.6765 279.392 29.7958C279.397 29.8098 279.397 29.8252 279.392 29.8393C279.357 30.1351 279.255 30.6005 279.233 30.7267C279.074 31.9294 279.016 33.1561 278.948 34.3698C278.731 38.4805 278.676 42.5913 278.631 46.6999C278.483 58.8799 278.574 71.0599 278.687 83.2246C278.802 95.1596 278.961 107.097 279.166 119.036C279.335 129.004 279.54 138.983 279.642 148.953C279.892 173.531 279.846 198.149 281.584 222.686C281.802 225.731 282.05 228.806 282.322 231.86C283.54 246.107 285.676 260.261 288.714 274.233C289.189 276.378 289.697 278.516 290.236 280.647C290.578 281.998 290.917 283.349 291.269 284.701C291.814 287.133 292.504 289.53 293.336 291.879C294.46 294.626 295.946 297.271 297.344 299.894C298.299 301.677 299.263 303.448 300.331 305.162C300.7 305.784 301.101 306.386 301.533 306.967C301.709 307.145 301.872 307.335 302.023 307.535C302.041 307.581 302.068 307.624 302.101 307.661C302.021 307.659 301.941 307.67 301.864 307.693C301.946 307.676 302.03 307.668 302.114 307.672C302.192 307.739 302.238 307.693 302.158 307.672C302.349 307.697 302.526 307.786 302.66 307.925C302.794 308.064 302.877 308.244 302.896 308.436C302.915 308.629 302.868 308.821 302.763 308.983C302.658 309.145 302.501 309.267 302.318 309.329C297.523 311.171 292.625 312.733 287.648 314.007C279.655 316.265 271.594 318.333 263.534 320.341C243.493 325.336 223.363 329.961 203.143 334.215C187.281 337.565 171.273 341.086 155.138 342.891C153.135 343.149 151.118 343.294 149.098 343.326C148.352 343.323 147.609 343.232 146.884 343.054C146.78 343.074 146.673 343.07 146.571 343.043C146.469 343.015 146.375 342.965 146.295 342.896C144.591 342.349 142.968 341.577 141.469 340.601C137.547 338.177 134.025 335.159 131.029 331.655C130.641 331.22 130.256 330.757 129.893 330.292C128.748 328.709 127.813 326.985 127.111 325.163C126.918 324.728 126.737 324.278 126.544 323.823C122.562 324.994 118.497 325.855 114.383 326.401C111.411 326.901 108.429 327.363 105.438 327.786C105.311 327.819 105.179 327.823 105.05 327.797C104.922 327.772 104.801 327.718 104.697 327.639C104.592 327.56 104.507 327.459 104.447 327.343C104.387 327.227 104.354 327.099 104.35 326.968C103.698 321.189 103.395 315.365 103.089 309.551C102.623 300.729 102.295 291.896 102.001 283.064C101.637 272.084 101.33 261.105 101.081 250.125C100.845 240.044 100.633 229.958 100.446 219.869L100.309 212.976C100.073 200.054 99.8644 187.129 99.6846 174.203C99.5266 163.36 99.3867 152.517 99.2649 141.676L99.1974 136.456C99.0597 124.944 98.935 113.432 98.8233 101.919C98.732 92.3575 98.645 82.7933 98.5623 73.2262C98.5029 66.4489 98.4499 59.6672 98.4035 52.8812C98.3796 49.7144 98.2883 46.5454 98.3448 43.3786V42.9697C98.3511 42.7877 98.4152 42.6124 98.5278 42.4693C98.6405 42.3261 98.7958 42.2226 98.9712 42.1737M230.878 32.6733V8.78527L220.671 9.366C214.79 9.69515 208.909 10.0279 203.028 10.3643C201.666 10.4426 200.302 10.5231 198.941 10.5818C198.716 10.5774 198.502 10.4864 198.344 10.328C198.185 10.1695 198.093 9.95575 198.088 9.7314C198.088 9.62917 198.066 9.52695 198.066 9.42472C198.065 9.3746 198.057 9.32489 198.042 9.27682C198.042 9.26595 198.042 9.26595 198.032 9.24202C197.997 9.07237 197.975 8.88967 197.94 8.72002C197.759 7.78409 197.478 6.8704 197.101 5.99475C195.851 3.15934 193.577 0.900876 190.732 -0.327978C187.881 -1.57643 183.727 -2.46383 181.036 -0.351903C179.318 1.26772 178.278 3.47938 178.128 5.83597C177.91 7.43262 177.891 9.0501 178.072 10.6514C178.128 11.1386 177.637 11.4562 177.219 11.5018C173.939 11.8194 170.657 12.1261 167.388 12.4436C162.168 12.9439 156.948 13.4398 151.728 13.9313C150.83 14.0227 149.923 14.1031 149.027 14.1923C149.094 16.0672 149.172 17.9398 149.244 19.8234C149.325 21.7548 149.392 23.684 149.462 25.6154L149.871 36.3338L149.905 37.1277C149.905 37.4344 149.927 37.7302 149.94 38.0368L150.212 45.0186L150.349 48.4986C154.797 47.8874 159.267 47.422 163.745 46.9761C170.592 46.2605 177.447 45.6124 184.307 44.9664C191.494 44.2965 198.68 43.644 205.868 43.0089C211.715 42.4869 217.558 41.9794 223.399 41.4864L228.984 41.0101C229.597 40.9535 230.256 40.8513 230.891 40.8056V32.6755M165.119 339.796C173.328 338.467 181.502 336.901 189.653 335.277C209.818 331.246 229.904 326.74 249.901 321.948C265.446 318.225 281.114 314.553 296.35 309.664C297.712 309.229 299.076 308.766 300.415 308.254C300.359 308.189 300.306 308.121 300.257 308.05C299.294 306.746 298.422 305.376 297.647 303.952C295.809 300.727 294.106 297.427 292.505 294.087C290.555 289.345 289.106 284.413 288.179 279.37C286.395 272.002 284.932 264.565 283.74 257.083C282.411 248.727 281.399 240.314 280.64 231.879C278.402 206.969 278.248 181.933 278.03 156.944C277.928 145.169 277.724 133.406 277.53 121.644C277.326 109.825 277.163 98.0074 277.043 86.1913C276.919 73.6351 276.825 61.0657 276.941 48.5073C276.986 44.1138 277.043 39.7203 277.236 35.3377C277.281 33.9763 277.372 32.6169 277.508 31.2617C277.543 30.8985 277.565 30.4678 277.621 30.0481C272.967 30.2851 268.312 30.5461 263.669 30.7963C253.314 31.3647 242.963 31.9592 232.616 32.5798V41.606C232.611 41.8304 232.52 42.0441 232.361 42.2026C232.202 42.3611 231.988 42.452 231.764 42.4564C229.539 42.6391 227.324 42.8305 225.099 43.0241C219.581 43.4997 214.059 43.9804 208.535 44.4661C201.43 45.0896 194.325 45.7291 187.22 46.3845C180.238 47.037 173.267 47.6895 166.296 48.4072C161.163 48.9292 156.032 49.4512 150.91 50.132C150.649 50.1668 150.24 50.2234 149.799 50.2908C149.672 50.3235 149.54 50.3273 149.412 50.3019C149.283 50.2764 149.163 50.2224 149.058 50.1438C148.954 50.0653 148.868 49.9641 148.808 49.848C148.748 49.7319 148.715 49.6037 148.711 49.473C148.563 45.7146 148.416 41.9453 148.276 38.1869C143.803 38.5393 139.333 38.9068 134.867 39.2896C124.967 40.1401 114.975 40.8796 105.163 42.5369C104.7 42.6152 104.235 42.7066 103.769 42.7979C103.807 47.8616 103.867 52.925 103.95 57.9881C104.154 71.5906 104.454 85.1967 104.848 98.8064C105.382 117.529 106.085 136.247 106.958 154.961C107.947 175.512 109.161 196.051 110.795 216.556C112.284 235.198 114.079 253.829 116.689 272.347C116.914 273.355 117.156 274.358 117.415 275.358C118.527 279.721 119.892 284.016 121.502 288.221C123.528 293.605 126.078 298.777 129.115 303.663C132.204 308.773 136.197 313.278 140.899 316.959C145.755 320.685 151.598 322.903 157.703 323.34C158.531 323.397 159.36 323.408 160.189 323.397C160.32 323.398 160.45 323.429 160.567 323.489C160.685 323.548 160.787 323.634 160.866 323.739C160.945 323.844 160.999 323.966 161.023 324.095C161.048 324.224 161.042 324.358 161.007 324.484C160.575 326.379 159.979 328.233 159.225 330.024C157.875 333.629 155.765 336.901 153.037 339.618C152.216 340.381 151.318 341.058 150.358 341.639C155.307 341.325 160.232 340.711 165.106 339.801M128.377 323.923C128.83 324.967 129.308 326 129.83 327.012C130.035 327.421 130.25 327.816 130.483 328.214C130.627 328.506 130.798 328.783 130.994 329.043C134.203 333.205 138.171 336.723 142.689 339.409C143.986 340.232 145.387 340.881 146.854 341.338C153.429 339.296 157.029 332.029 158.856 325.876C158.936 325.615 158.993 325.341 159.073 325.08C153.029 324.952 147.14 323.145 142.064 319.86C136.96 316.408 132.578 311.992 129.167 306.86C125.797 301.881 122.976 296.552 120.754 290.965C119.982 289.069 119.263 287.153 118.596 285.219C120.186 295.884 122.569 306.416 125.726 316.726C126.509 319.134 127.362 321.563 128.384 323.925M100.089 49.5491C100.135 55.5456 100.17 61.529 100.226 67.5233C100.294 76.4582 100.367 85.3895 100.444 94.3171C100.545 105.434 100.659 116.55 100.785 127.664C100.92 140.097 101.075 152.532 101.251 164.972C101.43 177.848 101.627 190.727 101.84 203.609C102.056 216.201 102.303 228.796 102.58 241.395C102.827 252.827 103.122 264.256 103.463 275.684C103.739 285.121 104.087 294.556 104.509 303.987C104.815 310.584 105.144 317.181 105.722 323.756C105.792 324.526 105.87 325.298 105.94 326.07C108.602 325.691 111.258 325.279 113.909 324.832C117.953 324.291 121.951 323.453 125.872 322.325C121.478 311.265 119.288 299.196 117.289 287.548C116.45 282.642 115.685 277.721 114.997 272.787C114.825 272.049 114.677 271.301 114.562 270.551C114.56 270.516 114.552 270.481 114.54 270.449C114.512 270.274 114.539 270.095 114.618 269.938C112.937 257.607 111.621 245.232 110.475 232.845C108.578 212.307 107.182 191.722 106.057 171.125C104.99 151.518 104.146 131.903 103.526 112.278C103.025 96.9185 102.635 81.5535 102.356 66.1835C102.221 58.5087 102.115 50.8374 102.038 43.1698C101.368 43.3395 100.709 43.4983 100.039 43.6679C100.039 45.6254 100.063 47.5829 100.074 49.5404M83.4134 31.9033C83.4784 34.602 83.5509 37.3005 83.631 39.9987C83.8238 47.2762 84.013 54.5574 84.1986 61.8422L85.049 94.3476L86.0735 133.746C86.4476 148.222 86.826 162.702 87.2088 177.185C87.5829 191.708 87.9614 206.226 88.3442 220.739C88.6951 234.369 89.0503 247.999 89.4099 261.629C89.6999 273.074 89.9986 284.515 90.306 295.953L90.9585 320.806C91.0608 324.7 91.2434 328.606 91.2652 332.499V333.01C91.3 334.098 89.597 334.098 89.5622 333.01C89.4947 330.309 89.4273 327.619 89.3447 324.915C89.1518 317.637 88.9626 310.356 88.777 303.071C88.487 292.24 88.2028 281.405 87.9244 270.566L86.9043 231.168C86.5302 216.691 86.1518 202.212 85.769 187.729C85.3949 173.207 85.0164 158.689 84.6336 144.175C84.2813 130.545 83.9253 116.915 83.5657 103.285C83.2757 91.8427 82.977 80.4022 82.6696 68.9632L82.0171 44.1094C81.9149 40.2162 81.7322 36.3099 81.7104 32.4145V31.9055C81.7215 31.6871 81.816 31.4813 81.9745 31.3307C82.133 31.18 82.3433 31.096 82.5619 31.096C82.7806 31.096 82.9909 31.18 83.1494 31.3307C83.3079 31.4813 83.4024 31.6871 83.4134 31.9055" fill="black"/>
<path d="M194.519 11.2952L184.357 13.1331C184.141 13.1875 183.912 13.1566 183.718 13.0469C183.523 12.9372 183.379 12.757 183.313 12.5437C183.254 12.3271 183.282 12.0957 183.393 11.9001C183.503 11.7045 183.687 11.5606 183.903 11.4997L194.064 9.6596C194.281 9.60533 194.51 9.63648 194.705 9.74661C194.899 9.85675 195.044 10.0374 195.108 10.2512C195.167 10.4678 195.138 10.6986 195.027 10.8939C194.917 11.0892 194.735 11.2333 194.519 11.2952Z" fill="black"/>
<path d="M146.084 110.055C145.782 98.1915 149.521 86.5771 156.687 77.1172C162.902 68.8453 171.375 62.5454 181.086 58.9756C190.953 55.4338 201.691 55.129 211.743 58.1056C221.595 61.1106 230.433 66.7602 237.297 74.4397C244.161 82.1191 248.787 91.5341 250.671 101.66C252.719 113.289 250.677 125.268 244.892 135.562C239.574 144.751 231.743 152.23 222.32 157.122C212.639 162.306 201.613 164.429 190.7 163.212C179.048 161.595 168.381 155.797 160.685 146.9C153.482 138.709 148.698 128.677 146.867 117.925C146.415 115.325 146.149 112.696 146.073 110.058M147.765 110.058C148.141 120.657 151.454 130.944 157.335 139.77C163.162 149.174 172.121 156.217 182.634 159.659C193.147 163.102 204.537 162.721 214.797 158.584C224.467 155.065 232.961 148.914 239.322 140.825C246.401 131.75 250.08 120.483 249.721 108.979C249.32 98.983 246.075 89.3091 240.368 81.0931C234.767 72.9383 227.072 66.4436 218.092 62.2924C208.867 57.9918 198.52 56.716 188.527 58.6471C178.762 60.6835 169.814 65.5524 162.801 72.6454C155.314 80.1214 150.303 89.7165 148.446 100.133C147.899 103.415 147.675 106.743 147.776 110.068" fill="#6DD3A8"/>
<path d="M210.799 126.57L223.731 107.791L231.27 114.569C231.27 114.569 215.569 128.887 209.109 141.354C209.109 141.354 188.331 100.718 167.088 90.5565L173.865 85.9347C192.327 93.9387 210.799 126.57 210.799 126.57ZM264.156 67.7016C264.53 66.0987 264.808 64.4761 265.052 62.8405C265.597 60.0965 265.689 57.2819 265.326 54.5081C265.245 54.0105 265.098 53.5257 264.891 53.0661C264.758 52.7417 264.53 52.4645 264.239 52.27C263.886 52.1295 263.514 52.0415 263.136 52.009C262.483 51.9307 261.831 51.885 261.178 51.8394C257.805 51.6458 254.41 51.7371 251.028 51.8394C248.744 51.9061 246.465 52.0083 244.192 52.146C243.104 52.2135 243.104 50.5104 244.192 50.443C249.73 50.0325 255.287 49.9229 260.837 50.1146C262.1 50.0874 263.361 50.2338 264.584 50.5496C265.108 50.7774 265.573 51.122 265.942 51.5571C266.312 51.9921 266.578 52.5061 266.718 53.0595C267.398 55.8811 267.468 58.8154 266.923 61.666C266.667 63.8419 266.292 66.0021 265.798 68.1366C265.713 68.3224 265.564 68.4721 265.379 68.5595C265.194 68.6468 264.985 68.6662 264.787 68.6143C264.589 68.5624 264.416 68.4425 264.298 68.2756C264.18 68.1087 264.124 67.9055 264.141 67.7016M243.317 162.051C248.472 161.79 253.672 161.449 258.782 160.7C260.076 160.541 261.359 160.29 262.618 159.95C262.904 159.887 263.162 159.735 263.356 159.515C263.622 159.151 263.79 158.725 263.845 158.277C264.146 155.569 263.875 152.827 263.049 150.23C262.578 148.228 261.997 146.254 261.309 144.316C260.946 143.283 262.579 142.839 262.944 143.861C263.541 145.567 264.06 147.299 264.5 149.051C265.396 151.92 265.769 154.928 265.6 157.929C265.58 158.516 265.444 159.092 265.2 159.626C264.956 160.16 264.61 160.64 264.18 161.04C263.168 161.643 262.029 162.001 260.854 162.084C257.426 162.697 253.929 163.004 250.453 163.275C248.07 163.47 245.686 163.629 243.302 163.754C242.215 163.811 242.215 162.118 243.302 162.062M117.778 66.3162C117.872 65.1721 118.406 64.1091 119.268 63.3516C120.293 62.7761 121.441 62.4533 122.616 62.4099C126.067 61.9096 129.576 61.7291 133.056 61.5573C135.448 61.4442 137.841 61.3659 140.22 61.3398C140.438 61.3508 140.644 61.4453 140.795 61.6038C140.946 61.7623 141.03 61.9726 141.03 62.1913C141.03 62.41 140.946 62.6203 140.795 62.7787C140.644 62.9372 140.438 63.0318 140.22 63.0428C135.033 63.1211 129.808 63.3038 124.643 63.8715C123.37 63.9823 122.107 64.1837 120.863 64.474C120.705 64.4917 120.552 64.5408 120.413 64.6185C120.275 64.6962 120.153 64.8009 120.056 64.9264C119.81 65.2735 119.64 65.6685 119.558 66.0856C119.148 68.7815 119.321 71.534 120.067 74.1571C120.467 76.1737 120.975 78.1674 121.589 80.1296C121.92 81.1736 120.284 81.6173 119.953 80.5842C119.41 78.8594 118.966 77.1042 118.581 75.3381C117.764 72.4051 117.492 69.3473 117.778 66.3162ZM127.986 153.194C127.838 154.817 127.768 156.442 127.768 158.064C127.621 160.857 127.9 163.655 128.595 166.364C128.733 166.854 128.935 167.324 129.197 167.76C129.371 168.086 129.63 168.357 129.948 168.546C129.993 168.567 130.004 168.578 130.015 168.578C130.042 168.585 130.069 168.593 130.095 168.602C130.163 168.624 130.23 168.635 130.313 168.659C130.386 168.662 130.458 168.669 130.53 168.68H130.965C131.618 168.68 132.27 168.648 132.908 168.602C136.292 168.352 139.65 167.795 142.991 167.217C145.262 166.832 147.532 166.413 149.803 165.957C150.869 165.74 151.326 167.375 150.256 167.591C144.731 168.784 139.144 169.668 133.521 170.238C132.275 170.455 131.001 170.462 129.752 170.259C129.237 170.083 128.767 169.797 128.373 169.422C127.979 169.046 127.671 168.59 127.47 168.084C126.42 165.338 125.948 162.404 126.085 159.467C126.037 157.362 126.11 155.256 126.302 153.16C126.391 152.092 128.084 152.072 127.981 153.16" fill="#6DD3A8"/>
<g filter="url(#filter0_dddd_1_19)">
<path d="M290.843 96.4029C291.435 128.295 290.321 269.231 290.23 280.665C289.698 278.529 289.19 276.39 288.707 274.248C285.67 260.276 283.535 246.122 282.315 231.875C282.042 228.821 281.797 225.764 281.578 222.703C279.838 198.167 279.896 173.548 279.635 148.97C279.533 139.002 279.329 129.021 279.159 119.053C278.966 107.121 278.807 95.1849 278.681 83.2442C278.567 71.0642 278.478 58.8842 278.624 46.7194C278.67 42.6086 278.739 38.487 278.944 34.3893C279.011 33.1735 279.068 31.9468 279.226 30.744C279.226 30.6179 279.35 30.1524 279.385 29.8588C279.385 29.8349 279.385 29.824 279.396 29.8131C279.517 29.6932 279.601 29.5408 279.638 29.3741C279.674 29.2075 279.662 29.0339 279.602 28.8743C279.542 28.7146 279.437 28.5758 279.3 28.4745C279.162 28.3733 278.999 28.3139 278.828 28.3037H278.567C276.627 28.2232 274.594 28.5212 272.654 28.6212C268.417 28.8474 264.189 29.078 259.971 29.3129C250.836 29.8233 241.708 30.3532 232.586 30.9028V13.5419C265.182 11.3278 289.614 9.9097 289.614 9.9097C289.614 9.9097 290.228 63.1581 290.841 96.4029M147.548 19.9691C147.765 25.4646 147.978 30.9637 148.185 36.4665C142.019 36.9435 135.861 37.4582 129.71 38.0107C120.643 38.5946 111.615 39.675 102.666 41.2471L98.969 42.1671C98.7919 42.2192 98.6359 42.3264 98.5237 42.473C98.4115 42.6196 98.3488 42.7981 98.3448 42.9827V43.3916C98.2882 46.5606 98.3904 49.7274 98.4013 52.8964C98.4477 59.6737 98.5013 66.4553 98.5622 73.2413C98.6405 82.8012 98.7268 92.3647 98.8211 101.932C98.9356 113.445 99.0611 124.958 99.1974 136.471L99.2648 141.691C99.4011 152.534 99.5417 163.377 99.6867 174.22C99.868 187.14 100.076 200.064 100.311 212.994L100.446 219.884C100.639 229.976 100.851 240.062 101.083 250.143C101.344 261.122 101.65 272.101 102.001 283.079C102.281 291.912 102.643 300.742 103.088 309.568C103.395 315.382 103.7 321.207 104.346 326.986C104.35 327.116 104.383 327.244 104.443 327.36C104.503 327.476 104.589 327.577 104.693 327.655C104.798 327.733 104.918 327.787 105.046 327.812C105.175 327.838 105.307 327.834 105.433 327.801C108.417 327.381 111.399 326.92 114.379 326.418C118.493 325.872 122.558 325.009 126.539 323.838C126.731 324.273 126.913 324.734 127.107 325.18C127.805 327 128.737 328.721 129.878 330.3C130.252 330.755 130.626 331.207 131.013 331.662L84.2703 339.609C82.4172 309.749 75.0375 28.6647 75.0375 28.6647C86.7085 25.859 115.105 22.7922 147.543 19.9647M82.0431 44.1072C82.2577 52.3969 82.4752 60.6815 82.6956 68.961C82.9856 80.4058 83.2851 91.8463 83.5939 103.282C83.9463 116.912 84.3022 130.542 84.6618 144.172C85.0359 158.694 85.4144 173.212 85.7972 187.727C86.1713 202.202 86.5497 216.682 86.9325 231.166L87.9526 270.564C88.2426 281.395 88.5268 292.23 88.8052 303.069C88.9981 310.347 89.1873 317.628 89.3729 324.913C89.4425 327.616 89.5099 330.307 89.5904 333.008C89.6014 333.226 89.696 333.432 89.8544 333.583C90.0129 333.734 90.2232 333.818 90.4419 333.818C90.6606 333.818 90.8709 333.734 91.0294 333.583C91.1878 333.432 91.2824 333.226 91.2934 333.008C91.2934 332.836 91.2804 332.669 91.2804 332.497C91.2564 328.604 91.0759 324.697 90.9737 320.804C90.7576 312.515 90.5401 304.23 90.3212 295.95C90.0312 284.506 89.7325 273.064 89.4251 261.627L88.3572 220.737C87.9802 206.214 87.6017 191.695 87.2218 177.182L86.0865 133.743L85.0642 94.3454C84.7742 83.5139 84.49 72.6787 84.2116 61.84C84.0188 54.5624 83.8295 47.2813 83.6439 39.9965C83.5765 37.2929 83.5091 34.6025 83.4264 31.9011C83.4154 31.6827 83.3209 31.4769 83.1624 31.3263C83.0039 31.1756 82.7936 31.0916 82.5749 31.0916C82.3562 31.0916 82.1459 31.1756 81.9875 31.3263C81.829 31.4769 81.7345 31.6827 81.7234 31.9011C81.7234 32.0708 81.7343 32.2404 81.7343 32.4101C81.7582 36.3251 81.9387 40.2118 82.041 44.105" fill="#DCBEFF"/>
</g>
<path d="M151.737 13.94C156.957 13.4412 162.177 12.9453 167.397 12.4523C170.679 12.1347 173.961 11.8281 177.23 11.5105C177.639 11.4779 178.137 11.1473 178.08 10.6601C177.902 9.05865 177.921 7.44144 178.137 5.84463C178.288 3.48832 179.327 1.27703 181.045 -0.343245C183.735 -2.45517 187.89 -1.56777 190.741 -0.31932C193.588 0.906254 195.863 3.16576 197.109 6.00341C197.486 6.87917 197.767 7.79283 197.949 8.72868C197.984 8.9005 198.008 9.08103 198.04 9.25068V9.28548C198.053 9.33115 198.053 9.3877 198.064 9.43338C198.078 9.53504 198.085 9.63747 198.086 9.74005C198.091 9.9644 198.183 10.1781 198.341 10.3366C198.5 10.4951 198.714 10.586 198.939 10.5905C200.3 10.5122 201.664 10.4317 203.025 10.373C208.91 10.0453 214.791 9.71251 220.669 9.37466L230.876 8.79393V40.7817C230.241 40.8273 229.593 40.9296 228.969 40.9861L223.383 41.4624C217.534 41.9627 211.691 42.4738 205.853 42.9958C198.667 43.6309 191.48 44.2834 184.292 44.9533C177.434 45.5899 170.58 46.2598 163.732 46.963C159.256 47.4285 154.784 47.8939 150.332 48.4964L150.197 45.0164C150.108 42.6862 150.018 40.3583 149.925 38.0325C149.925 37.7258 149.901 37.4322 149.89 37.1255C149.89 36.8645 149.868 36.6013 149.855 36.3294C149.721 32.7537 149.584 29.1809 149.447 25.611C149.368 23.6818 149.301 21.7526 149.229 19.8212C149.162 17.9485 149.081 16.0737 149.012 14.1901C149.921 14.1227 150.817 14.0422 151.724 13.9509M183.298 12.5436C183.363 12.7575 183.509 12.938 183.703 13.0478C183.898 13.1575 184.128 13.1881 184.344 13.1331L194.506 11.2952C194.722 11.2333 194.904 11.0891 195.014 10.8938C195.125 10.6985 195.154 10.4677 195.095 10.2512C195.031 10.0374 194.886 9.85672 194.692 9.74659C194.497 9.63645 194.268 9.6053 194.051 9.65958L183.89 11.4996C183.676 11.5644 183.495 11.709 183.385 11.9033C183.275 12.0977 183.244 12.3269 183.298 12.5436Z" fill="#B26EE6"/>
<path d="M329.334 376.863L225.276 405.497C225.276 405.497 201.568 390.102 193.871 382.711C193.871 382.711 191.102 351.609 192.951 345.458C194.8 339.307 237.288 332.528 237.288 332.528C236.19 330.694 235.485 328.651 235.22 326.53C234.954 324.409 235.132 322.256 235.744 320.208C235.744 320.208 206.497 252.166 218.816 242.322C227.638 235.259 246.874 231.205 260.141 231.286C260.141 231.32 260.106 231.342 260.106 231.366C259.858 232.467 260.913 233.476 261.65 234.135C262.389 234.783 263.166 235.386 263.978 235.94C262.842 236.147 262.038 236.771 262.538 238.235C263.068 239.324 263.936 240.212 265.013 240.766C266.426 241.636 267.915 242.373 269.463 242.97C270.874 243.555 272.328 244.029 273.813 244.388C274.49 244.575 275.201 244.606 275.892 244.479C276.584 245.572 277.327 246.633 278.117 247.657C278.765 248.498 279.512 249.258 280.342 249.919C282.204 262.667 280.614 283.751 271.453 317.746C271.453 317.746 278.537 321.128 273.609 328.214C273.609 328.214 288.699 323.286 292.694 324.517C296.057 325.55 318.359 333.985 326.291 339.39L329.06 342.193C332.071 353.54 332.161 365.465 329.323 376.856M225.128 402.739C225.197 403.826 226.9 403.826 226.831 402.739C226.136 391.946 226.414 381.113 227.662 370.37C227.786 369.283 226.083 369.302 225.959 370.37C224.711 381.113 224.433 391.946 225.128 402.739ZM270.246 247.135C267.237 248.428 264.126 249.473 260.946 250.258C249.66 253.042 237.816 252.553 226.798 248.849C225.752 248.499 225.321 250.154 226.344 250.487C229.554 251.576 232.851 252.392 236.199 252.925C248.003 254.819 260.102 253.32 271.088 248.603C272.088 248.168 271.225 246.717 270.237 247.137M243.702 319.269C243.691 320.426 245.088 320.482 245.917 320.598C253.638 321.722 262.085 322.605 269.146 318.54C269.34 318.427 269.481 318.242 269.538 318.025C269.596 317.808 269.565 317.577 269.452 317.383C269.339 317.189 269.154 317.048 268.937 316.99C268.72 316.932 268.489 316.964 268.295 317.076C264.807 318.959 260.894 319.913 256.931 319.847C254.886 319.867 252.842 319.761 250.81 319.53C249.845 319.427 248.879 319.312 247.926 319.177C247.415 319.11 246.893 319.029 246.382 318.96L245.712 318.858C245.694 318.803 245.672 318.75 245.645 318.699C245.519 318.512 245.337 318.369 245.125 318.293C244.913 318.216 244.682 318.209 244.466 318.272C244.249 318.335 244.059 318.466 243.921 318.644C243.784 318.823 243.707 319.041 243.702 319.267M270.657 330.577C266.561 332.706 262.05 333.917 257.438 334.125C252.825 334.333 248.224 333.532 243.952 331.779C242.941 331.36 242.5 333.006 243.498 333.415C247.987 335.23 252.817 336.048 257.654 335.811C262.49 335.574 267.217 334.288 271.508 332.042C272.484 331.531 271.621 330.065 270.657 330.577ZM322.975 343.951C314.04 347.286 305.002 350.321 295.861 353.057C279.659 357.922 263.191 361.853 246.539 364.828C242.384 365.566 238.217 366.362 234.028 366.862C232.039 367.18 230.007 367.087 228.055 366.588C226.179 365.926 224.41 364.988 222.809 363.806C215.543 358.904 208.311 353.93 201.059 348.99C200.15 348.377 199.298 349.841 200.207 350.454C204.387 353.305 208.565 356.151 212.741 358.993C214.751 360.365 216.761 361.729 218.781 363.101C220.723 364.42 222.631 365.84 224.697 366.964C226.439 367.945 228.371 368.539 230.363 368.704C232.461 368.766 234.559 368.594 236.618 368.193C240.797 367.545 244.964 366.84 249.118 366.079C257.519 364.536 265.872 362.747 274.176 360.711C290.869 356.622 307.311 351.568 323.418 345.575C324.427 345.212 323.986 343.577 322.964 343.951" fill="#F55555"/>
<path d="M329.014 342.076C329.027 342.122 329.043 342.168 329.06 342.213C328.164 341.304 327.233 340.373 326.291 339.407C327.429 340.027 328.371 340.951 329.014 342.076Z" fill="#F55555"/>
<g filter="url(#filter1_dddd_1_19)">
<path d="M304.093 273.374C302.753 272.939 301.425 272.454 300.074 271.886L300.696 247.056C300.696 247.056 288.81 256.696 280.338 249.941C279.507 249.28 278.76 248.52 278.113 247.679C277.243 246.543 276.501 245.488 275.888 244.501C275.729 244.251 275.581 244.003 275.433 243.75C275.285 243.498 275.116 243.183 274.968 242.913C272.912 239.052 272.823 236.349 273.595 234.522C273.922 233.791 274.404 233.14 275.008 232.614C275.611 232.089 276.322 231.7 277.091 231.477C278.695 231.064 280.39 231.175 281.928 231.792C282.337 231.918 282.746 232.056 283.165 232.169C283.552 232.283 283.942 232.386 284.336 232.475C284.707 232.555 285.082 232.616 285.46 232.658C285.199 232.804 284.949 232.962 284.699 233.123C284.675 233.123 284.664 233.145 284.642 233.156C284.425 233.304 284.222 233.463 284.018 233.632C283.795 233.818 283.582 234.015 283.381 234.224C282.798 234.8 282.305 235.46 281.917 236.181C281.84 236.322 281.803 236.482 281.811 236.642C281.819 236.803 281.872 236.958 281.963 237.091C282.029 237.196 282.118 237.285 282.224 237.352C282.377 237.443 282.559 237.475 282.735 237.441C282.867 237.43 282.995 237.389 283.108 237.32C283.221 237.251 283.317 237.157 283.387 237.045C283.522 236.785 283.674 236.534 283.842 236.295C283.877 236.238 283.922 236.181 283.955 236.136C283.977 236.112 283.997 236.085 284.014 236.057C284.092 235.966 284.159 235.864 284.231 235.773C284.412 235.561 284.605 235.36 284.81 235.17C284.912 235.081 285.003 234.99 285.106 234.909C285.151 234.863 285.208 234.831 285.264 234.785L285.299 234.75V234.739C285.48 234.602 285.673 234.478 285.867 234.354C284.66 236.056 283.878 238.022 283.585 240.088C283.531 240.304 283.562 240.533 283.671 240.728C283.781 240.922 283.961 241.067 284.175 241.132C284.391 241.19 284.622 241.161 284.817 241.051C285.013 240.941 285.157 240.758 285.219 240.542C285.425 238.985 285.937 237.484 286.726 236.125C287.515 234.767 288.566 233.578 289.817 232.628C290.006 232.511 290.143 232.325 290.201 232.11C290.258 231.895 290.23 231.666 290.123 231.47C290.01 231.292 289.837 231.159 289.636 231.094C290.55 230.12 291.295 229 291.839 227.779C294.437 218.756 299.399 210.592 306.212 204.131C307.562 196.399 313.33 192.527 319.621 190.62C319.825 190.563 320.029 190.493 320.234 190.437C320.541 190.346 320.858 190.267 321.165 190.187C321.191 190.178 321.218 190.171 321.245 190.165C321.528 190.095 321.813 190.017 322.115 189.961C326.165 189.118 330.299 188.744 334.435 188.847C336.412 188.882 337.808 188.984 338.239 188.984C340.022 188.984 338.341 194.365 337.569 196.625C359.686 200.781 369.461 218.89 372.925 223.26C376.251 227.462 367.782 244.64 360.378 249.862C360.208 249.975 360.049 250.091 359.891 250.204L359.56 250.397C359.268 250.572 358.965 250.727 358.653 250.863C358.597 250.704 358.527 250.556 358.47 250.397C358.414 250.238 358.357 250.091 358.301 249.943C358.266 249.851 358.233 249.76 358.199 249.682C358.188 249.658 358.188 249.647 358.177 249.625C355.627 242.717 353.444 235.679 351.637 228.541L354.464 237.01C354.464 237.01 357.54 229.415 355.075 226.951C353.943 225.691 352.389 224.891 350.706 224.702C349.762 220.671 348.937 216.618 348.231 212.544C348.048 211.456 346.414 211.93 346.595 212.996C347.22 216.621 347.935 220.224 348.742 223.806C350.8 232.855 353.459 241.758 356.7 250.454C356.802 250.715 356.894 250.987 356.996 251.248L357.028 251.35L356.811 251.385H356.72L356.743 251.43L357.178 252.211L357.69 253.099C358.671 255.648 359.704 258.176 360.789 260.683C360.828 260.778 360.886 260.865 360.962 260.935C361.037 261.006 361.126 261.059 361.224 261.092C360.789 261.433 360.11 261.931 359.282 262.521C358.647 262.977 357.909 263.476 357.057 264.021C356.839 264.169 356.591 264.328 356.341 264.476C356.091 264.624 355.876 264.77 355.626 264.931C351.61 267.424 347.381 269.555 342.989 271.299C341.775 271.775 340.503 272.241 339.198 272.674C327.876 276.685 315.562 276.927 304.091 273.365M303.58 233.911C303.514 237.166 302.748 240.368 301.333 243.3C300.855 244.277 302.321 245.14 302.797 244.153C304.353 240.958 305.201 237.464 305.283 233.911C305.272 233.692 305.177 233.487 305.019 233.336C304.86 233.185 304.65 233.101 304.431 233.101C304.213 233.101 304.002 233.185 303.844 233.336C303.686 233.487 303.591 233.692 303.58 233.911ZM334.556 196.135C334.545 196.011 334.509 195.891 334.449 195.782C334.39 195.672 334.309 195.576 334.211 195.5C334.113 195.423 334 195.367 333.879 195.336C333.759 195.305 333.633 195.298 333.51 195.318C332.614 195.452 331.718 195.624 330.833 195.816C324.753 197.117 318.962 199.518 313.746 202.902C312.826 203.491 313.689 204.968 314.599 204.366C320.466 200.563 327.067 198.037 333.973 196.951C334.068 196.942 334.16 196.913 334.243 196.866C334.326 196.819 334.398 196.754 334.454 196.677C334.51 196.6 334.549 196.512 334.568 196.418C334.587 196.325 334.586 196.228 334.565 196.135M194.291 385.367L204.948 393.197L221.806 405.594L225.413 408.248C226.468 407.885 227.557 407.595 228.625 407.271C231.305 406.477 233.995 405.681 236.673 404.898C240.477 403.785 244.285 402.684 248.083 401.571C252.637 400.256 257.19 398.935 261.742 397.61L276.469 393.351C281.419 391.92 286.365 390.493 291.306 389.071C295.893 387.741 300.483 386.417 305.079 385.097L316.671 381.759C319.442 380.965 322.211 380.158 324.993 379.366C326.298 378.992 327.603 378.572 328.934 378.231C328.99 378.231 329.047 378.196 329.104 378.185C329.32 378.125 329.552 378.153 329.748 378.264C329.944 378.375 330.088 378.559 330.149 378.776C330.209 378.992 330.181 379.224 330.07 379.42C329.959 379.616 329.775 379.76 329.558 379.821L324.573 381.25C320.248 382.501 315.922 383.747 311.597 384.986C305.545 386.735 299.489 388.48 293.429 390.221C286.64 392.172 279.855 394.129 273.073 396.094C266.488 398.002 259.906 399.906 253.329 401.806C247.902 403.385 242.486 404.951 237.06 406.541C233.743 407.506 230.439 408.47 227.135 409.47C226.533 409.651 225.443 410.208 224.843 409.89C224.531 409.695 224.235 409.477 223.955 409.238C223.253 408.713 222.537 408.191 221.833 407.669C216.794 403.968 211.757 400.262 206.721 396.553C202.516 393.464 198.319 390.377 194.13 387.29C193.912 387.129 193.695 386.959 193.462 386.8C192.564 386.198 193.414 384.723 194.288 385.369" fill="#058AF0"/>
</g>
<path d="M304.093 273.374C315.563 276.94 327.879 276.689 339.194 272.658C340.471 272.239 341.735 271.781 342.985 271.284C347.378 269.541 351.607 267.409 355.621 264.915C355.871 264.757 356.111 264.609 356.337 264.461C356.563 264.313 356.826 264.154 357.052 264.008C357.802 263.52 358.544 263.021 359.277 262.51C359.603 264.386 359.868 266.272 360.074 268.165C360.119 268.552 360.163 268.926 360.198 269.313L360.3 270.379C361.117 278.866 361.151 287.41 360.402 295.903C358.858 310.368 363.786 339.309 363.786 339.309C363.533 339.721 363.252 340.116 362.945 340.49C362.74 340.17 362.549 339.838 362.333 339.535L356.928 344.031C356.372 344.168 355.804 344.268 355.247 344.349C353.941 342.56 352.298 341.045 350.41 339.888C350.127 339.718 349.945 339.616 349.945 339.616C348.819 340.95 347.787 342.36 346.856 343.837C345.32 345.957 344.415 348.468 344.246 351.08C343.248 352.156 342.173 353.158 341.031 354.079C341.031 354.079 335.866 349.051 329.069 342.204C329.06 342.157 329.044 342.11 329.023 342.067C328.373 340.943 327.427 340.02 326.287 339.398C316.023 328.986 303.354 315.691 298.538 308.824C292.829 300.638 299.191 283.764 304.102 273.372M345.377 332.232L338.724 280.467C331.535 290.437 318.366 298.191 318.548 299.915C318.786 301.971 336.373 322.068 345.377 332.24" fill="#DAEDFD"/>
<path d="M366.222 266.233C366.241 267.588 365.736 268.898 364.813 269.89C364.326 270.319 363.74 270.619 363.107 270.763C362.475 270.908 361.816 270.891 361.191 270.716C360.892 270.628 360.601 270.515 360.321 270.377L360.219 269.309C360.184 268.957 360.141 268.537 360.095 268.163C360.394 268.413 360.713 268.637 361.05 268.833C361.344 268.993 361.662 269.104 361.992 269.163C362.428 269.186 362.864 269.104 363.262 268.924C363.652 268.66 363.97 268.303 364.189 267.885C364.407 267.468 364.518 267.003 364.513 266.531C364.635 264.546 364.353 262.556 363.684 260.683C363.423 259.911 364.569 259.184 365.102 259.854C365.787 260.718 366.531 261.534 367.327 262.297C367.809 262.807 368.374 263.233 368.998 263.556C369.008 263.556 369.132 263.6 369.202 263.623C369.202 263.567 369.259 263.443 369.259 263.419C369.386 261.201 368.639 259.021 367.179 257.346C365.738 255.58 364.021 254.057 362.094 252.838C361.125 252.194 360.116 251.613 359.073 251.098C358.982 251.13 358.903 251.167 358.812 251.2C359.909 254.101 361.069 256.978 362.292 259.828C362.356 259.983 362.377 260.152 362.353 260.317C362.329 260.483 362.26 260.639 362.154 260.769C362.048 260.898 361.908 260.996 361.751 261.053C361.593 261.109 361.423 261.122 361.259 261.09C361.16 261.058 361.07 261.005 360.995 260.935C360.92 260.864 360.861 260.777 360.824 260.681C359.745 258.171 358.712 255.643 357.725 253.096C357.601 252.768 357.464 252.444 357.34 252.098C357.298 252.128 357.26 252.162 357.226 252.2L356.791 251.415L356.77 251.37C356.802 251.37 356.826 251.359 356.859 251.359C356.932 251.353 357.005 251.342 357.076 251.326L357.044 251.222C356.942 250.963 356.85 250.689 356.748 250.428C353.506 241.732 350.847 232.829 348.79 223.78C347.972 220.193 347.267 216.602 346.643 212.972C346.462 211.904 348.096 211.439 348.279 212.517C348.983 216.593 349.808 220.647 350.754 224.678C351.049 225.959 351.367 227.244 351.685 228.528C353.489 235.666 355.672 242.704 358.225 249.61L358.247 249.669C358.281 249.758 358.314 249.849 358.349 249.93L358.518 250.382C358.575 250.528 358.645 250.689 358.701 250.848C359.012 250.708 359.316 250.553 359.61 250.382C359.723 250.315 359.828 250.258 359.939 250.191C360.106 250.083 360.268 249.97 360.426 249.849C363.656 251.443 366.488 253.739 368.715 256.57C369.554 257.659 370.193 258.889 370.601 260.202C371.003 261.377 371.104 262.634 370.894 263.858C370.835 264.263 370.634 264.633 370.326 264.902C370.018 265.171 369.624 265.321 369.215 265.324C368.41 265.218 367.659 264.86 367.068 264.302C366.729 264.041 366.416 263.756 366.092 263.463C366.207 264.381 366.249 265.308 366.218 266.233M369.263 263.623C369.298 263.623 369.387 263.567 369.263 263.623H369.239L369.217 263.637C369.231 263.629 369.247 263.624 369.263 263.623ZM306.092 177.209C307.244 170.235 310.249 163.7 314.792 158.286C316.329 156.564 318.216 155.19 320.327 154.256C322.437 153.322 324.723 152.85 327.031 152.87C327.176 152.873 327.318 152.913 327.444 152.987C327.569 153.06 327.673 153.165 327.747 153.29C329.813 152.109 336.114 148.953 341.836 150.587C348.796 152.575 340.416 159.556 340.416 159.556C340.416 159.556 347.811 161.124 349.523 164.111C351.234 167.097 342.972 168.378 342.972 168.378C342.972 168.378 351.078 173.215 347.524 174.929C345.103 175.972 342.466 176.412 339.837 176.212C339.837 176.212 342.541 183.468 338.419 185.034C335.67 186.078 336.462 187.749 334.456 188.838C330.321 188.728 326.186 189.102 322.137 189.952L321.267 190.154C321.242 190.165 321.216 190.173 321.189 190.178C320.882 190.256 320.565 190.337 320.258 190.428C320.054 190.485 319.849 190.552 319.645 190.609C317.684 190.163 315.799 189.436 314.046 188.451C311.849 187.241 309.897 185.632 308.291 183.705C307.283 182.651 306.498 181.404 305.986 180.038C305.797 179.101 305.832 178.132 306.088 177.211M308.496 181.126C309.858 183.145 311.611 184.871 313.65 186.202C315.095 187.14 316.656 187.885 318.294 188.416L318.907 188.621C318.799 188.221 318.76 187.807 318.792 187.394C318.855 186.673 319.036 185.967 319.327 185.304C318.956 184.741 318.789 184.067 318.853 183.395C318.918 182.724 319.211 182.095 319.684 181.613C320.32 180.784 321.124 180.1 322.044 179.603C322.551 179.468 323.074 179.407 323.599 179.421C324.107 179.357 324.606 179.235 325.086 179.057C325.805 178.807 326.449 178.382 326.961 177.82C327.341 177.446 327.598 176.966 327.699 176.443C327.801 175.92 327.741 175.379 327.529 174.89C327.325 174.578 327.061 174.31 326.752 174.1C326.444 173.891 326.097 173.745 325.731 173.67C325.366 173.595 324.99 173.593 324.624 173.665C324.258 173.736 323.909 173.879 323.599 174.085C323.509 174.142 323.408 174.179 323.303 174.195C323.198 174.21 323.09 174.204 322.988 174.177H322.942C322.918 174.177 322.907 174.164 322.896 174.164C318.888 173.415 320.965 167.488 322.135 164.887C321.425 162.42 321.614 159.781 322.668 157.44C322.873 156.989 323.116 156.556 323.394 156.146C323.726 155.657 324.095 155.193 324.497 154.76C321.588 155.249 318.898 156.615 316.787 158.675C314.205 161.297 312.164 164.401 310.782 167.81C310.118 169.345 309.537 170.914 309.042 172.511C309.175 172.58 309.289 172.681 309.372 172.806C309.394 172.839 309.429 172.874 309.45 172.909C309.429 172.874 309.418 172.863 309.405 172.839C309.418 172.852 309.429 172.874 309.44 172.885C309.485 172.93 309.52 172.987 309.564 173.033C309.679 173.17 309.814 173.294 309.94 173.42C310.018 173.498 310.109 173.565 310.188 173.637C310.224 173.678 310.267 173.712 310.314 173.739C310.516 173.887 310.728 174.02 310.949 174.137C311.008 174.159 311.064 174.194 311.121 174.216C311.133 174.222 311.144 174.23 311.153 174.24L311.551 174.377C311.688 174.419 311.829 174.449 311.971 174.466C311.995 174.464 312.019 174.468 312.041 174.479C312.113 174.485 312.186 174.485 312.258 174.479H312.767C312.791 174.479 312.813 174.466 312.837 174.466C312.929 174.453 313.02 174.434 313.109 174.409C313.326 174.349 313.558 174.377 313.754 174.488C313.95 174.599 314.094 174.783 314.154 175C314.214 175.217 314.186 175.449 314.075 175.645C313.964 175.841 313.78 175.985 313.563 176.045C312.407 176.322 311.189 176.173 310.133 175.625C309.519 175.3 308.966 174.869 308.5 174.353C308.306 175.078 308.124 175.803 307.954 176.528C307.841 177.028 307.737 177.528 307.626 178.026C307.54 178.575 307.573 179.136 307.724 179.671C307.874 180.205 308.137 180.702 308.496 181.126Z" fill="black"/>
<path d="M317.008 161.483C318.255 162.489 319.143 163.87 319.54 165.422C319.554 165.477 319.573 165.53 319.597 165.581C319.616 165.707 319.603 165.837 319.557 165.956C319.511 166.076 319.435 166.181 319.336 166.262C319.235 166.365 319.106 166.438 318.965 166.471C318.824 166.504 318.677 166.497 318.54 166.449C318.403 166.402 318.282 166.317 318.192 166.203C318.102 166.09 318.046 165.953 318.031 165.809C317.725 164.593 317.026 163.511 316.043 162.732C315.249 162.097 316.212 160.835 317.008 161.483ZM312.337 167.149C312.337 166.925 312.403 166.705 312.528 166.518C312.653 166.332 312.83 166.186 313.037 166.1C313.245 166.014 313.473 165.992 313.693 166.036C313.914 166.079 314.116 166.188 314.275 166.346C314.434 166.505 314.542 166.707 314.585 166.928C314.629 167.148 314.607 167.376 314.521 167.584C314.435 167.791 314.289 167.968 314.103 168.093C313.916 168.218 313.696 168.285 313.472 168.285C313.171 168.284 312.883 168.164 312.67 167.951C312.457 167.739 312.337 167.45 312.337 167.149ZM309.431 172.813C309.339 172.689 309.374 172.745 309.431 172.813ZM271.088 248.603C260.105 253.331 248.003 254.832 236.199 252.929C232.852 252.388 229.556 251.571 226.344 250.486C225.31 250.136 225.752 248.501 226.798 248.853C237.815 252.562 249.661 253.05 260.946 250.26C264.126 249.477 267.237 248.433 270.246 247.139C271.233 246.704 272.097 248.159 271.096 248.603M245.621 318.71C245.648 318.761 245.672 318.814 245.69 318.868L246.36 318.971C246.871 319.051 247.393 319.119 247.904 319.188C248.868 319.314 249.823 319.438 250.788 319.541C252.82 319.766 254.863 319.872 256.907 319.858C260.869 319.917 264.782 318.964 268.273 317.089C268.467 316.977 268.698 316.946 268.915 317.003C269.132 317.061 269.318 317.202 269.43 317.396C269.543 317.59 269.574 317.821 269.517 318.038C269.459 318.255 269.318 318.44 269.124 318.553C262.072 322.616 253.614 321.733 245.895 320.608C245.066 320.482 243.67 320.439 243.681 319.28C243.683 319.053 243.759 318.834 243.896 318.654C244.032 318.473 244.223 318.342 244.441 318.278C244.658 318.215 244.89 318.223 245.102 318.301C245.315 318.379 245.496 318.523 245.621 318.712M271.497 332.04C267.206 334.286 262.479 335.571 257.643 335.808C252.806 336.045 247.976 335.228 243.487 333.413C242.489 333.004 242.93 331.357 243.942 331.779C248.213 333.532 252.815 334.332 257.427 334.124C262.039 333.916 266.55 332.704 270.646 330.574C271.61 330.063 272.473 331.529 271.497 332.04ZM227.659 370.37C226.414 381.113 226.136 391.946 226.831 402.739C226.9 403.826 225.208 403.826 225.128 402.739C224.433 391.946 224.711 381.113 225.956 370.37C226.093 369.283 227.786 369.283 227.659 370.37ZM201.057 348.99C208.302 353.929 215.534 358.902 222.807 363.806C224.408 364.989 226.176 365.927 228.053 366.588C230.003 367.093 232.037 367.186 234.026 366.862C238.215 366.362 242.393 365.557 246.536 364.828C263.188 361.848 279.655 357.917 295.857 353.055C304.992 350.309 314.029 347.273 322.97 343.948C323.992 343.563 324.434 345.21 323.425 345.584C307.318 351.579 290.876 356.632 274.183 360.718C265.883 362.748 257.53 364.538 249.125 366.09C244.97 366.848 240.804 367.552 236.625 368.202C234.565 368.603 232.467 368.774 230.37 368.711C228.376 368.552 226.442 367.958 224.704 366.971C222.637 365.846 220.73 364.426 218.788 363.11C216.778 361.736 214.768 360.374 212.748 358.999C208.569 356.15 204.391 353.305 200.213 350.463C199.317 349.849 200.157 348.372 201.064 348.986M330.833 195.816C331.722 195.627 332.615 195.461 333.512 195.318C333.635 195.299 333.76 195.306 333.88 195.338C334 195.37 334.113 195.425 334.21 195.502C334.308 195.579 334.389 195.674 334.449 195.783C334.508 195.892 334.545 196.012 334.556 196.135C334.576 196.228 334.577 196.324 334.557 196.417C334.538 196.511 334.499 196.598 334.443 196.675C334.387 196.752 334.316 196.817 334.233 196.864C334.151 196.912 334.059 196.941 333.965 196.951C327.061 198.039 320.462 200.565 314.596 204.366C313.676 204.968 312.826 203.496 313.744 202.902C318.958 199.513 324.751 197.111 330.833 195.816ZM260.097 231.377C260.107 231.349 260.119 231.322 260.132 231.296C260.567 229.798 262.936 229.867 264.128 230.037C264.216 230.048 264.304 230.067 264.389 230.094C264.267 229.842 264.197 229.569 264.182 229.29C264.167 229.011 264.207 228.732 264.3 228.469C264.787 227.038 266.592 226.642 267.921 226.664C269.5 226.744 271.056 227.078 272.53 227.651C272.565 227.664 272.599 227.675 272.621 227.686C272.667 226.437 274.348 225.848 275.54 225.7C278.9 225.265 281.569 228.31 283.294 230.798C283.668 231.331 284.009 231.886 284.338 232.467C283.942 232.375 283.555 232.273 283.17 232.16C282.748 232.036 282.339 231.91 281.932 231.784C281.433 231.067 280.887 230.385 280.297 229.741C279.479 228.75 278.419 227.987 277.219 227.527C276.602 227.331 275.943 227.304 275.312 227.449C275.002 227.491 274.703 227.587 274.426 227.732C274.393 227.752 274.359 227.771 274.324 227.788H274.335C274.385 227.88 274.443 227.968 274.507 228.051C274.634 228.192 274.771 228.324 274.916 228.447C275.084 228.604 275.266 228.745 275.459 228.869C275.654 228.982 275.795 229.167 275.852 229.384C275.91 229.601 275.879 229.832 275.766 230.026C275.653 230.22 275.468 230.362 275.251 230.419C275.034 230.477 274.803 230.446 274.609 230.333C272.937 229.483 271.157 228.868 269.317 228.504C268.788 228.334 268.23 228.272 267.676 228.321C267.122 228.37 266.583 228.529 266.092 228.789C265.844 228.98 265.844 229.106 265.946 229.335C266.161 229.745 266.457 230.108 266.816 230.4C267.389 230.915 268.017 231.364 268.689 231.74C268.779 231.794 268.857 231.864 268.919 231.948C268.982 232.032 269.027 232.128 269.052 232.23C269.098 232.391 269.096 232.562 269.045 232.722C268.994 232.882 268.897 233.023 268.765 233.128C268.634 233.233 268.474 233.296 268.307 233.31C268.14 233.324 267.972 233.288 267.825 233.206C266.93 232.653 265.963 232.225 264.952 231.934C264.139 231.674 263.283 231.582 262.433 231.662C262.23 231.707 262.028 231.764 261.831 231.831C261.895 231.939 261.968 232.041 262.048 232.136C262.383 232.524 262.752 232.882 263.149 233.206C264.023 233.921 264.945 234.575 265.909 235.164C266.488 235.54 267.066 235.903 267.669 236.251C267.837 236.361 267.962 236.526 268.021 236.718C268.08 236.909 268.069 237.116 267.992 237.301C267.914 237.486 267.774 237.638 267.596 237.731C267.417 237.823 267.212 237.85 267.016 237.806C266.426 237.645 265.821 237.545 265.211 237.51C264.841 237.481 264.47 237.512 264.11 237.602C264.132 237.68 264.178 237.806 264.178 237.819C264.79 238.638 265.599 239.29 266.529 239.714C267.799 240.435 269.124 241.053 270.492 241.565C271.741 242.056 273.023 242.459 274.328 242.77C274.546 242.815 274.763 242.861 274.964 242.894C275.111 243.165 275.27 243.45 275.429 243.733C275.588 244.016 275.725 244.233 275.884 244.483C275.193 244.611 274.483 244.58 273.806 244.392C272.322 244.032 270.868 243.557 269.456 242.972C267.908 242.377 266.418 241.641 265.006 240.771C263.928 240.218 263.059 239.329 262.531 238.239C262.031 236.775 262.838 236.151 263.973 235.947C263.158 235.396 262.381 234.792 261.646 234.139C260.92 233.487 259.863 232.482 260.124 231.37M264.11 237.604C263.973 237.626 264.076 237.65 264.11 237.604ZM303.582 233.919C303.593 233.701 303.688 233.495 303.846 233.345C304.005 233.194 304.215 233.11 304.434 233.11C304.652 233.11 304.863 233.194 305.021 233.345C305.18 233.495 305.274 233.701 305.285 233.919C305.218 237.475 304.369 240.971 302.799 244.162C302.323 245.149 300.859 244.286 301.335 243.309C302.75 240.377 303.517 237.174 303.582 233.919ZM283.396 234.204C283.6 233.987 283.805 233.806 284.031 233.613C284.257 233.419 284.44 233.282 284.655 233.136C284.675 233.126 284.694 233.115 284.712 233.102C284.957 232.932 285.211 232.777 285.473 232.636C286.182 232.243 286.943 231.95 287.733 231.766C287.892 231.736 288.056 231.747 288.209 231.799C288.47 231.581 288.731 231.364 289.005 231.146C289.102 231.08 289.214 231.038 289.331 231.026C289.448 231.014 289.567 231.031 289.675 231.077C289.877 231.142 290.049 231.275 290.162 231.453C290.269 231.649 290.297 231.877 290.24 232.093C290.183 232.308 290.045 232.493 289.856 232.61C288.605 233.562 287.555 234.751 286.765 236.11C285.975 237.468 285.462 238.97 285.253 240.527C285.193 240.744 285.049 240.928 284.854 241.038C284.658 241.149 284.426 241.178 284.209 241.119C283.996 241.054 283.815 240.909 283.705 240.715C283.595 240.521 283.564 240.291 283.618 240.075C283.917 238.01 284.699 236.045 285.899 234.339C285.708 234.463 285.514 234.589 285.332 234.726L285.299 234.761L285.14 234.885C285.038 234.977 284.936 235.057 284.845 235.146C284.641 235.335 284.448 235.536 284.266 235.746C284.183 235.836 284.107 235.931 284.038 236.031C284.022 236.06 284.003 236.087 283.981 236.112C283.946 236.168 283.903 236.212 283.868 236.271C283.7 236.51 283.549 236.76 283.413 237.019C283.292 237.203 283.107 237.336 282.893 237.393C282.68 237.45 282.454 237.427 282.256 237.328C282.15 237.261 282.061 237.171 281.995 237.065C281.905 236.932 281.852 236.777 281.844 236.616C281.836 236.456 281.873 236.296 281.95 236.155C282.336 235.436 282.826 234.776 283.403 234.198M357.979 354.373C359.128 351.537 359.201 348.379 358.183 345.493C358.127 345.358 357.218 343.79 356.878 344.085C356.896 344.069 356.915 344.053 356.935 344.04C357.503 343.574 362.34 339.544 362.34 339.544C362.557 339.851 362.76 340.179 362.951 340.497C367.04 347.093 367.21 356.313 366.109 357.631C364.95 359.017 356.185 360.093 356.185 360.093C356.971 358.251 357.572 356.335 357.979 354.373Z" fill="black"/>
<path d="M334.567 366.294C336.667 365.258 339.017 364.832 341.347 365.068C341.347 365.068 345.864 356.655 344.422 352.135C344.318 351.793 344.261 351.438 344.253 351.08C344.426 348.466 345.335 345.954 346.876 343.835C347.809 342.36 348.841 340.949 349.964 339.611C349.964 339.611 350.145 339.714 350.43 339.885C352.319 341.04 353.962 342.556 355.265 344.346C356.793 346.407 357.465 348.979 357.139 351.524C356.117 359.121 346.264 373.274 340.516 371.847C334.767 370.42 332.103 367.943 334.567 366.297" fill="black"/>
<path d="M312.985 185.963L318.966 188.682V185.963V185.419L319.51 183.244L320.597 180.525L322.229 179.982L323.86 179.438L326.035 178.894L327.122 176.719V176.175V174.544L326.035 173.457C325.491 173.638 324.295 174 323.86 174C323.425 174 322.591 173.638 322.229 173.457L321.141 172.369L320.597 169.107L321.685 167.475V165.3V164.757V163.125V160.95L322.229 158.775L323.316 157.144L325.491 154.425C325.129 154.607 324.295 154.969 323.86 154.969C323.316 154.969 322.229 154.969 321.141 155.513C320.271 155.948 319.329 156.782 318.966 157.144L316.791 158.775L314.072 161.494L311.897 165.844L309.722 170.194L309.179 171.825V172.913L310.81 173.457L312.441 174.544L313.529 175.088L312.985 175.632H311.897L309.722 175.088L308.635 174.544H308.091V176.175L307.547 178.894L309.179 182.157L312.985 185.963Z" fill="#F3C5EF"/>
<path d="M327.122 174.544L326.035 173.457C325.491 173.638 324.295 174 323.86 174C323.425 174 322.591 173.638 322.229 173.457L321.141 172.369L320.597 169.107L321.685 167.475V165.3V164.757V163.125V160.95L322.229 158.775L323.316 157.144L325.491 154.425C325.129 154.607 324.295 154.969 323.86 154.969C323.316 154.969 322.229 154.969 321.141 155.513C320.271 155.948 319.329 156.782 318.966 157.144L316.791 158.775L314.072 161.494L311.897 165.844L309.722 170.194L309.179 171.825V172.913L310.81 173.457L312.441 174.544L313.529 175.088L312.985 175.632H311.897L309.722 175.088L308.635 174.544H308.091V176.175L307.547 178.894L309.179 182.157L312.985 185.963L318.966 188.682V185.963V185.419L319.51 183.244L320.597 180.525L322.229 179.982L323.86 179.438L326.035 178.894L327.122 176.719M327.122 174.544C327.122 174.907 327.122 175.74 327.122 176.175M327.122 174.544V176.175M327.122 176.175V176.719M327.122 176.175C327.122 176.322 327.122 176.515 327.122 176.719M327.122 176.719L328.21 174.544L327.666 175.632L327.122 177.807C327.122 177.567 327.122 177.12 327.122 176.719Z" stroke="black" stroke-width="1.0875"/>
<circle cx="315.703" cy="167.475" r="2.175" fill="black"/>
</g>
<defs>
<filter id="filter0_dddd_1_19" x="17.4" y="-0.965301" width="331.253" height="542.85" filterUnits="userSpaceOnUse" color-interpolation-filters="sRGB">
<feFlood flood-opacity="0" result="BackgroundImageFix"/>
<feColorMatrix in="SourceAlpha" type="matrix" values="0 0 0 0 0 0 0 0 0 0 0 0 0 0 0 0 0 0 127 0" result="hardAlpha"/>
<feOffset dy="8.7"/>
<feGaussianBlur stdDeviation="9.7875"/>
<feColorMatrix type="matrix" values="0 0 0 0 0 0 0 0 0 0 0 0 0 0 0 0 0 0 0.1 0"/>
<feBlend mode="normal" in2="BackgroundImageFix" result="effect1_dropShadow_1_19"/>
<feColorMatrix in="SourceAlpha" type="matrix" values="0 0 0 0 0 0 0 0 0 0 0 0 0 0 0 0 0 0 127 0" result="hardAlpha"/>
<feOffset dy="35.8875"/>
<feGaussianBlur stdDeviation="17.9437"/>
<feColorMatrix type="matrix" values="0 0 0 0 0 0 0 0 0 0 0 0 0 0 0 0 0 0 0.09 0"/>
<feBlend mode="normal" in2="effect1_dropShadow_1_19" result="effect2_dropShadow_1_19"/>
<feColorMatrix in="SourceAlpha" type="matrix" values="0 0 0 0 0 0 0 0 0 0 0 0 0 0 0 0 0 0 127 0" result="hardAlpha"/>
<feOffset dy="81.5625"/>
<feGaussianBlur stdDeviation="24.4688"/>
<feColorMatrix type="matrix" values="0 0 0 0 0 0 0 0 0 0 0 0 0 0 0 0 0 0 0.05 0"/>
<feBlend mode="normal" in2="effect2_dropShadow_1_19" result="effect3_dropShadow_1_19"/>
<feColorMatrix in="SourceAlpha" type="matrix" values="0 0 0 0 0 0 0 0 0 0 0 0 0 0 0 0 0 0 127 0" result="hardAlpha"/>
<feOffset dy="144.637"/>
<feGaussianBlur stdDeviation="28.8188"/>
<feColorMatrix type="matrix" values="0 0 0 0 0 0 0 0 0 0 0 0 0 0 0 0 0 0 0.01 0"/>
<feBlend mode="normal" in2="effect3_dropShadow_1_19" result="effect4_dropShadow_1_19"/>
<feBlend mode="normal" in="SourceGraphic" in2="effect4_dropShadow_1_19" result="shape"/>
</filter>
<filter id="filter1_dddd_1_19" x="122.391" y="182.305" width="262.153" height="332.081" filterUnits="userSpaceOnUse" color-interpolation-filters="sRGB">
<feFlood flood-opacity="0" result="BackgroundImageFix"/>
<feColorMatrix in="SourceAlpha" type="matrix" values="0 0 0 0 0 0 0 0 0 0 0 0 0 0 0 0 0 0 127 0" result="hardAlpha"/>
<feOffset dx="-2.175" dy="4.35"/>
<feGaussianBlur stdDeviation="5.4375"/>
<feColorMatrix type="matrix" values="0 0 0 0 0.235294 0 0 0 0 0.203922 0 0 0 0 0.203922 0 0 0 0.1 0"/>
<feBlend mode="normal" in2="BackgroundImageFix" result="effect1_dropShadow_1_19"/>
<feColorMatrix in="SourceAlpha" type="matrix" values="0 0 0 0 0 0 0 0 0 0 0 0 0 0 0 0 0 0 127 0" result="hardAlpha"/>
<feOffset dx="-9.7875" dy="18.4875"/>
<feGaussianBlur stdDeviation="10.3312"/>
<feColorMatrix type="matrix" values="0 0 0 0 0.235294 0 0 0 0 0.203922 0 0 0 0 0.203922 0 0 0 0.09 0"/>
<feBlend mode="normal" in2="effect1_dropShadow_1_19" result="effect2_dropShadow_1_19"/>
<feColorMatrix in="SourceAlpha" type="matrix" values="0 0 0 0 0 0 0 0 0 0 0 0 0 0 0 0 0 0 127 0" result="hardAlpha"/>
<feOffset dx="-21.75" dy="40.2375"/>
<feGaussianBlur stdDeviation="13.5938"/>
<feColorMatrix type="matrix" values="0 0 0 0 0.235294 0 0 0 0 0.203922 0 0 0 0 0.203922 0 0 0 0.05 0"/>
<feBlend mode="normal" in2="effect2_dropShadow_1_19" result="effect3_dropShadow_1_19"/>
<feColorMatrix in="SourceAlpha" type="matrix" values="0 0 0 0 0 0 0 0 0 0 0 0 0 0 0 0 0 0 127 0" result="hardAlpha"/>
<feOffset dx="-38.0625" dy="71.775"/>
<feGaussianBlur stdDeviation="16.3125"/>
<feColorMatrix type="matrix" values="0 0 0 0 0.235294 0 0 0 0 0.203922 0 0 0 0 0.203922 0 0 0 0.01 0"/>
<feBlend mode="normal" in2="effect3_dropShadow_1_19" result="effect4_dropShadow_1_19"/>
<feBlend mode="normal" in="SourceGraphic" in2="effect4_dropShadow_1_19" result="shape"/>
</filter>
<clipPath id="clip0_1_19">
<rect width="435" height="435" fill="white" transform="matrix(-1 0 0 1 435 0)"/>
</clipPath>
</defs>
</svg>
